# xmcd
#
# Track frame offsets: 
#        150
#        15256
#        34530
#        54903
#        71019
#        87457
#        117675
#        133077
#        151973
#        164065
#        179611
#        189735
#        212686
#
# Disc length: 3043 seconds
#
# Revision: 0
# Processed by: cddbd v1.5.2PL0 Copyright (c) Steve Scherf et al.
# Submitted via: ExactAudioCopy v1.0b3
#
DISCID=b80be10d
DTITLE=Wayne Sauls - Emotional
DYEAR=2001
DGENRE=Blues
TTITLE0=Crazy 'Bout My Baby
TTITLE1=Trouble In Mind
TTITLE2=Big Legged Woman
TTITLE3=Don't Come Around Here
TTITLE4=The Road Is A Friend Of Mine
TTITLE5=It's Up To You
TTITLE6=Three Quarter Moon
TTITLE7=Half Ain't Been Told (w EQT)
TTITLE8=Special Kind Of Mambo
TTITLE9=Set Me Adrift
TTITLE10=Hand In The Pocket
TTITLE11=Movin' Down The Road
TTITLE12=Movin' Down The Road
EXTD=
EXTT0=
EXTT1=
EXTT2=
EXTT3=
EXTT4=
EXTT5=
EXTT6=
EXTT7=
EXTT8=
EXTT9=
EXTT10=
EXTT11=
EXTT12=
PLAYORDER=
